<?xml version="1.0" encoding="utf-8"?>
<!-- Generator: Adobe Illustrator 16.0.0, SVG Export Plug-In . SVG Version: 6.00 Build 0)  -->
<!DOCTYPE svg PUBLIC "-//W3C//DTD SVG 1.1//EN" "http://www.w3.org/Graphics/SVG/1.1/DTD/svg11.dtd">
<svg version="1.1" id="Capa_1" xmlns="http://www.w3.org/2000/svg" xmlns:xlink="http://www.w3.org/1999/xlink" x="0px" y="0px"
	 width="62.25px" height="62.25px" viewBox="0 0 62.25 62.25" enable-background="new 0 0 62.25 62.25" xml:space="preserve">
<g id="XMLID_28_">
	
		<circle id="XMLID_18_" fill="none" stroke="#FFFFFF" stroke-width="1.4629" stroke-linecap="round" stroke-linejoin="round" stroke-miterlimit="10" cx="-4734.5" cy="755.833" r="283.333"/>
	<g id="XMLID_15_">
		<path id="XMLID_17_" fill="#FFFFFF" d="M-4728.833,778.5l76.5,45.333c2.833,2.834,8.5,0,11.333-2.833l5.667-11.333
			c2.833-2.834,0-8.5-2.833-11.334l-59.5-34c-2.833-2.833-2.833-2.833-2.833-5.666V685c0-5.667-2.833-8.5-8.5-8.5h-14.167
			c-5.667,0-8.5,2.833-8.5,8.5v85C-4734.5,772.833-4731.667,775.667-4728.833,778.5z"/>
		<path id="XMLID_16_" fill="#FFFFFF" d="M-4714.667,574.5c-96.333,0-172.833,73.667-181.333,170
			c0,5.667-5.667,11.333-11.333,11.333h-31.167c-5.667,0-8.5,8.5-5.667,11.334l62.333,65.166c2.834,2.834,8.5,2.834,11.333,0
			l65.167-65.166c5.667-5.667,0-11.334-5.667-11.334h-31.167c-8.5,0-14.167-5.666-11.333-14.166
			c5.667-70.834,68-127.5,141.667-127.5c76.5,0,138.833,65.166,138.833,138.833c0,79.333-62.333,141.667-141.667,141.667
			c-36.833,0-68-14.167-93.5-34c-2.833-2.834-8.5-2.834-11.333,0l-14.167,14.166c-2.833,2.834-2.833,8.5,0,14.167
			c31.167,28.333,73.667,45.333,121.833,45.333c99.167,0,181.333-82.166,181.333-181.333
			C-4533.333,653.833-4612.667,574.5-4714.667,574.5L-4714.667,574.5z"/>
	</g>
</g>
<g>
	<g id="XMLID_27_">
		
			<circle id="XMLID_25_" fill="none" stroke="#FFFFFF" stroke-width="4" stroke-linecap="round" stroke-linejoin="round" stroke-miterlimit="10" cx="31.125" cy="31.125" r="28.521"/>
	</g>
	<g>
		<rect id="XMLID_61_" x="24.369" y="14.466" fill="#FFFFFF" width="3.425" height="3.417"/>
		<rect id="XMLID_60_" x="14.466" y="14.466" fill="#FFFFFF" width="3.426" height="3.417"/>
		<rect id="XMLID_59_" x="19.495" y="14.466" fill="#FFFFFF" width="3.425" height="3.417"/>
		<rect id="XMLID_58_" x="39.237" y="14.466" fill="#FFFFFF" width="3.426" height="3.417"/>
		<rect id="XMLID_57_" x="29.335" y="14.466" fill="#FFFFFF" width="3.425" height="3.417"/>
		<rect id="XMLID_56_" x="34.364" y="14.466" fill="#FFFFFF" width="3.425" height="3.417"/>
		<rect id="XMLID_55_" x="44.226" y="14.466" fill="#FFFFFF" width="3.426" height="3.417"/>
		<rect id="XMLID_10_" x="24.369" y="19.481" fill="#FFFFFF" width="3.425" height="3.417"/>
		<rect id="XMLID_11_" x="14.466" y="19.481" fill="#FFFFFF" width="3.426" height="3.417"/>
		<rect id="XMLID_12_" x="19.495" y="19.481" fill="#FFFFFF" width="3.425" height="3.417"/>
		<rect id="XMLID_13_" x="39.237" y="19.481" fill="#FFFFFF" width="3.425" height="3.417"/>
		<rect id="XMLID_14_" x="29.335" y="19.481" fill="#FFFFFF" width="3.425" height="3.416"/>
		<rect id="XMLID_9_" x="34.363" y="19.481" fill="#FFFFFF" width="3.426" height="3.416"/>
		<rect id="XMLID_8_" x="44.226" y="19.481" fill="#FFFFFF" width="3.426" height="3.417"/>
		<rect id="XMLID_7_" x="24.369" y="24.479" fill="#FFFFFF" width="3.425" height="3.417"/>
		<rect id="XMLID_6_" x="14.466" y="24.479" fill="#FFFFFF" width="3.426" height="3.418"/>
		<rect id="XMLID_19_" x="19.495" y="24.479" fill="#FFFFFF" width="3.425" height="3.418"/>
		<rect id="XMLID_20_" x="39.237" y="24.479" fill="#FFFFFF" width="3.425" height="3.418"/>
		<rect id="XMLID_5_" x="29.335" y="24.479" fill="#FFFFFF" width="3.425" height="3.418"/>
		<rect id="XMLID_4_" x="34.363" y="24.479" fill="#FFFFFF" width="3.426" height="3.418"/>
		<rect id="XMLID_23_" x="44.226" y="24.479" fill="#FFFFFF" width="3.426" height="3.418"/>
		<rect id="XMLID_24_" x="24.502" y="29.495" fill="#FFFFFF" width="3.426" height="3.417"/>
		<rect id="XMLID_3_" x="14.6" y="29.495" fill="#FFFFFF" width="3.425" height="3.417"/>
		<rect id="XMLID_26_" x="19.629" y="29.495" fill="#FFFFFF" width="3.425" height="3.417"/>
		<rect id="XMLID_2_" x="39.371" y="29.495" fill="#FFFFFF" width="3.425" height="3.417"/>
		<rect id="XMLID_1_" x="29.469" y="29.495" fill="#FFFFFF" width="3.425" height="3.417"/>
		<rect id="XMLID_29_" x="34.498" y="29.495" fill="#FFFFFF" width="3.425" height="3.417"/>
		<rect id="XMLID_30_" x="44.359" y="29.495" fill="#FFFFFF" width="3.425" height="3.417"/>
		<rect id="XMLID_31_" x="24.369" y="34.354" fill="#FFFFFF" width="3.425" height="3.417"/>
		<rect id="XMLID_32_" x="14.466" y="34.354" fill="#FFFFFF" width="3.426" height="3.417"/>
		<rect id="XMLID_33_" x="19.495" y="34.354" fill="#FFFFFF" width="3.425" height="3.417"/>
		<rect id="XMLID_34_" x="39.237" y="34.354" fill="#FFFFFF" width="3.425" height="3.417"/>
		<rect id="XMLID_35_" x="29.335" y="34.354" fill="#FFFFFF" width="3.425" height="3.417"/>
		<rect id="XMLID_36_" x="34.363" y="34.354" fill="#FFFFFF" width="3.426" height="3.417"/>
		<rect id="XMLID_37_" x="44.226" y="34.354" fill="#FFFFFF" width="3.426" height="3.417"/>
		<rect id="XMLID_38_" x="24.369" y="39.369" fill="#FFFFFF" width="3.424" height="3.417"/>
		<rect id="XMLID_39_" x="14.466" y="39.369" fill="#FFFFFF" width="3.425" height="3.417"/>
		<rect id="XMLID_40_" x="19.495" y="39.369" fill="#FFFFFF" width="3.424" height="3.417"/>
		<rect id="XMLID_41_" x="39.237" y="39.369" fill="#FFFFFF" width="3.425" height="3.417"/>
		<rect id="XMLID_42_" x="29.335" y="39.369" fill="#FFFFFF" width="3.425" height="3.417"/>
		<rect id="XMLID_43_" x="34.363" y="39.369" fill="#FFFFFF" width="3.425" height="3.417"/>
		<rect id="XMLID_44_" x="44.226" y="39.369" fill="#FFFFFF" width="3.425" height="3.417"/>
		<rect id="XMLID_45_" x="24.369" y="44.367" fill="#FFFFFF" width="3.424" height="3.417"/>
		<rect id="XMLID_46_" x="14.466" y="44.367" fill="#FFFFFF" width="3.425" height="3.417"/>
		<rect id="XMLID_47_" x="19.495" y="44.367" fill="#FFFFFF" width="3.424" height="3.417"/>
		<rect id="XMLID_48_" x="39.237" y="44.367" fill="#FFFFFF" width="3.425" height="3.417"/>
		<rect id="XMLID_49_" x="29.335" y="44.367" fill="#FFFFFF" width="3.425" height="3.417"/>
		<rect id="XMLID_50_" x="34.363" y="44.367" fill="#FFFFFF" width="3.425" height="3.417"/>
		<rect id="XMLID_51_" x="44.226" y="44.367" fill="#FFFFFF" width="3.425" height="3.417"/>
	</g>
</g>
</svg>
