<?xml version="1.0" encoding="utf-8"?>
<!-- Generator: Adobe Illustrator 19.0.0, SVG Export Plug-In . SVG Version: 6.00 Build 0)  -->
<svg version="1.1" id="Capa_1" xmlns="http://www.w3.org/2000/svg" xmlns:xlink="http://www.w3.org/1999/xlink" x="0px" y="0px"
	 viewBox="0 0 20 12.3" style="enable-background:new 0 0 20 12.3;" xml:space="preserve">
<style type="text/css">
	.st0{fill:#53A4DB;}
</style>
<g id="XMLID_4_">
	<path id="XMLID_3_" class="st0" d="M0.9,1C1,1,1.2,1,1.2,1c0.8,1.2,2,1.5,3.4,1.6c0.3,0,0.6,0,1,0c0-0.6,0-1.1,0-1.7
		c0.1,0,0.1-0.1,0.2-0.1c1.4,1,2.9,1.9,4.4,3c-1.5,1-3,2-4.4,3c-0.1,0-0.1,0-0.2-0.1c0-0.4,0-0.8,0-1.1c0-0.3-0.1-0.5-0.5-0.6
		C4.3,4.7,3.4,4.5,2.7,4.1c-1-0.5-1.5-1.4-1.8-2.5C0.9,1.4,0.9,1.2,0.9,1z"/>
	<path id="XMLID_2_" class="st0" d="M17.9,10c0-1.8,0-3.6,0-5.5c-0.5,0.4-1,0.7-1.5,1.1c-1.2,0.9-2.4,1.7-3.6,2.6
		c-0.4,0.3-0.7,0.3-1.1,0c-1-0.8-2-1.5-3.1-2.3C8.8,5.7,9,5.5,9.3,5.4c0.2-0.1,0.5-0.1,0.6,0c0.8,0.5,1.5,1.1,2.4,1.7
		c1.8-1.3,3.5-2.6,5.3-3.9c0,0,0-0.1,0-0.1c-0.4,0-0.9,0-1.3,0c-1.4,0-2.9-0.1-4.3,0c-1.1,0.1-1.9-0.3-2.6-1c0.2,0,0.3,0,0.5,0
		c2.8,0,5.6,0,8.4,0C18.9,2.1,19,2.2,19,3c0,2.4,0,4.8,0,7.2c0,0.8-0.1,0.9-0.9,0.9c-3.9,0-7.8,0-11.7,0c-0.8,0-0.9-0.1-0.9-0.9
		c0-0.9,0-1.7,0-2.6c0.3-0.1,0.7-0.2,1-0.3c0,0.9,0,1.7,0,2.7C10.3,10,14.1,10,17.9,10z"/>
</g>
</svg>
