<?xml version="1.0" encoding="utf-8"?>
<!-- Generator: Adobe Illustrator 16.0.0, SVG Export Plug-In . SVG Version: 6.00 Build 0)  -->
<!DOCTYPE svg PUBLIC "-//W3C//DTD SVG 1.1//EN" "http://www.w3.org/Graphics/SVG/1.1/DTD/svg11.dtd">
<svg version="1.1" id="Capa_1" xmlns="http://www.w3.org/2000/svg" xmlns:xlink="http://www.w3.org/1999/xlink" x="0px" y="0px"
	 width="180.418px" height="147.022px" viewBox="0 0 180.418 147.022" enable-background="new 0 0 180.418 147.022"
	 xml:space="preserve">
<g>
	<path fill-rule="evenodd" clip-rule="evenodd" fill="#FFFFFF" d="M71.949,73.668c0.9-1.426,1.435-2.746,2.361-3.676
		c17.493-17.564,35.02-35.094,52.565-52.605c6.389-6.377,15.924-4.978,19.625,2.819c2.074,4.371,1.102,9.659-2.646,13.465
		c-5.977,6.069-12.032,12.061-18.048,18.091c-0.663,0.666-1.289,1.369-2.03,2.159c7.185,2.632,9.12,7.897,7.853,14.945
		c7.933,2.195,10.687,7.555,9.424,14.733c2.586,1.842,5.27,3.109,7.06,5.159c3.823,4.38,3.44,10.924-0.72,15.157
		c-9.252,9.419-18.643,18.704-27.977,28.043c-2.089,2.091-4.154,4.207-6.269,6.271c-9.853,9.611-25.293,9.942-35.247,0.447
		c-8.238-7.857-16.234-15.976-24.127-24.182c-1.483-1.542-2.168-3.972-2.891-6.104c-3.773-11.125-7.42-22.293-11.178-33.423
		c-0.348-1.032-1.027-2.045-1.795-2.83c-4.754-4.851-9.583-9.629-14.376-14.441c-2.816-2.827-2.714-3.896,0.081-6.899
		c3.591-3.86,7.186-7.503,13.151-6.757c6.369,0.796,12.257,2.844,17.667,6.308c4.384,2.806,7.549,6.725,10.22,11.089
		C66.893,65.1,69.057,68.812,71.949,73.668z M27.621,53.491c4.596,4.561,9.317,9.106,13.849,13.833
		c1.304,1.358,2.411,3.118,3.021,4.895c3.521,10.269,6.819,20.617,10.302,30.901c0.96,2.835,1.646,6.15,3.568,8.206
		c7.629,8.16,15.574,16.037,23.639,23.773c7.437,7.13,19.062,7.498,26.436,0.438c12.178-11.655,23.968-23.717,35.833-35.696
		c2.785-2.812,2.241-6.85-0.981-8.838c-2.434-1.504-4.853-1.207-7.06,0.639c-1.485,1.242-3.057,1.433-4.466,0.009
		c-1.536-1.553-1.17-3.189,0.213-4.674c1.069-1.144,2.275-2.171,3.259-3.381c1.58-1.943,1.767-4.158,0.528-6.318
		c-1.288-2.242-3.335-3.367-5.927-2.872c-1.095,0.208-2.155,0.882-3.097,1.535c-1.584,1.097-3.13,1.324-4.487-0.139
		c-1.478-1.594-1.049-3.227,0.368-4.684c0.819-0.844,1.682-1.647,2.481-2.51c2.387-2.575,2.606-5.541,0.62-7.946
		c-2.138-2.586-5.021-2.871-8.103-0.794c-0.081,0.055-0.156,0.118-0.233,0.178c-1.603,1.29-3.284,1.479-4.702-0.113
		c-1.457-1.638-0.872-3.23,0.56-4.66c6.384-6.369,12.758-12.75,19.131-19.132c2.979-2.981,6.021-5.904,8.894-8.984
		c1.96-2.104,2.104-4.581,0.551-7.029c-1.417-2.237-4.2-3.241-6.709-2.149c-1.375,0.599-2.584,1.729-3.673,2.815
		c-19.291,19.242-38.547,38.517-57.82,57.778c-2.96,2.957-4.757,2.673-6.823-0.903c-2.841-4.916-5.794-9.768-8.625-14.69
		c-3.847-6.686-9.853-10.563-16.991-12.694C36.401,48.856,31.255,47.136,27.621,53.491z"/>
	<path fill-rule="evenodd" clip-rule="evenodd" fill="#FFFFFF" d="M73.784,13.426c0-2.961,0.014-5.922-0.004-8.883
		c-0.012-2.007,0.842-3.439,2.908-3.538c2.097-0.101,3.17,1.357,3.198,3.287c0.086,6.015,0.086,12.035-0.009,18.05
		c-0.03,1.929-1.075,3.338-3.224,3.226c-2.151-0.112-2.872-1.583-2.871-3.546C73.786,19.157,73.784,16.291,73.784,13.426z"/>
	<path fill-rule="evenodd" clip-rule="evenodd" fill="#FFFFFF" d="M104.829,10.015c0.776,0.594,1.925,1.045,2.25,1.837
		c0.368,0.899,0.435,2.511-0.123,3.104c-4.175,4.442-8.442,8.809-12.931,12.926c-0.714,0.654-3.224,0.448-3.923-0.289
		c-0.692-0.732-0.74-3.176-0.047-3.938c3.972-4.361,8.23-8.464,12.448-12.597C102.999,10.571,103.843,10.44,104.829,10.015z"/>
	<path fill-rule="evenodd" clip-rule="evenodd" fill="#FFFFFF" d="M48.96,9.92c1.112,0.669,2.026,1.013,2.666,1.638
		c3.887,3.802,7.704,7.673,11.56,11.506c1.488,1.479,2.081,3.119,0.385,4.71c-1.615,1.515-3.301,1.063-4.787-0.427
		c-3.837-3.847-7.769-7.606-11.454-11.593c-0.785-0.85-1.055-2.584-0.852-3.791C46.608,11.188,48.038,10.632,48.96,9.92z"/>
</g>
</svg>
