<?xml version="1.0" encoding="utf-8"?>
<!-- Generator: Adobe Illustrator 16.0.0, SVG Export Plug-In . SVG Version: 6.00 Build 0)  -->
<!DOCTYPE svg PUBLIC "-//W3C//DTD SVG 1.1//EN" "http://www.w3.org/Graphics/SVG/1.1/DTD/svg11.dtd">
<svg version="1.1" id="Capa_1" xmlns="http://www.w3.org/2000/svg" xmlns:xlink="http://www.w3.org/1999/xlink" x="0px" y="0px"
	 width="180.418px" height="147.022px" viewBox="0 0 180.418 147.022" enable-background="new 0 0 180.418 147.022"
	 xml:space="preserve">
<g>
	<path fill="none" stroke="#FFFFFF" stroke-width="2" stroke-miterlimit="10" d="M169.23,112.953c0,3.484-2.834,6.308-6.332,6.308
		H17.605c-3.499,0-6.332-2.823-6.332-6.308V23.166c0-3.481,2.833-6.305,6.332-6.305h145.293c3.498,0,6.332,2.823,6.332,6.305
		V112.953z"/>
	<g>
		<defs>
			<path id="SVGID_1_" d="M120.689,127.405c0,1.358,1.104,2.462,2.461,2.462c1.36,0,2.461-1.104,2.461-2.462
				c0-1.36-1.101-2.462-2.461-2.462C121.793,124.943,120.689,126.045,120.689,127.405"/>
		</defs>
		<clipPath id="SVGID_2_">
			<use xlink:href="#SVGID_1_"  overflow="visible"/>
		</clipPath>
		
			<linearGradient id="SVGID_3_" gradientUnits="userSpaceOnUse" x1="-157.7339" y1="693.7539" x2="-157.0009" y2="693.7539" gradientTransform="matrix(0 -6.7749 6.7749 0 -4576.9795 -938.7053)">
			<stop  offset="0" style="stop-color:#838485"/>
			<stop  offset="1" style="stop-color:#B0B0B0"/>
		</linearGradient>
		<rect x="120.689" y="124.943" clip-path="url(#SVGID_2_)" fill="url(#SVGID_3_)" width="4.922" height="4.924"/>
	</g>
	<g>
		<defs>
			<path id="SVGID_4_" d="M120.949,127.405c0,1.216,0.985,2.202,2.201,2.202c1.217,0,2.203-0.986,2.203-2.202
				c0-1.217-0.986-2.201-2.203-2.201C121.935,125.204,120.949,126.188,120.949,127.405"/>
		</defs>
		<clipPath id="SVGID_5_">
			<use xlink:href="#SVGID_4_"  overflow="visible"/>
		</clipPath>
		
			<linearGradient id="SVGID_6_" gradientUnits="userSpaceOnUse" x1="-181.3013" y1="673.1016" x2="-180.5679" y2="673.1016" gradientTransform="matrix(0 6.0633 -6.0633 0 4204.3813 1224.4348)">
			<stop  offset="0" style="stop-color:#838485"/>
			<stop  offset="1" style="stop-color:#B0B0B0"/>
		</linearGradient>
		<rect x="120.949" y="125.204" clip-path="url(#SVGID_5_)" fill="url(#SVGID_6_)" width="4.404" height="4.403"/>
	</g>
	<g>
		<defs>
			<path id="SVGID_7_" d="M129.823,127.405c0,1.358,1.101,2.462,2.46,2.462c1.361,0,2.463-1.104,2.463-2.462
				c0-1.36-1.102-2.462-2.463-2.462C130.924,124.943,129.823,126.045,129.823,127.405"/>
		</defs>
		<clipPath id="SVGID_8_">
			<use xlink:href="#SVGID_7_"  overflow="visible"/>
		</clipPath>
		
			<linearGradient id="SVGID_9_" gradientUnits="userSpaceOnUse" x1="-157.7339" y1="693.2627" x2="-157.0009" y2="693.2627" gradientTransform="matrix(0 -6.7749 6.7749 0 -4564.5186 -938.7053)">
			<stop  offset="0" style="stop-color:#838485"/>
			<stop  offset="1" style="stop-color:#B0B0B0"/>
		</linearGradient>
		<rect x="129.823" y="124.943" clip-path="url(#SVGID_8_)" fill="url(#SVGID_9_)" width="4.923" height="4.924"/>
	</g>
	<g>
		<defs>
			<path id="SVGID_10_" d="M130.082,127.405c0,1.216,0.986,2.202,2.201,2.202c1.219,0,2.201-0.986,2.201-2.202
				c0-1.217-0.982-2.201-2.201-2.201C131.068,125.204,130.082,126.188,130.082,127.405"/>
		</defs>
		<clipPath id="SVGID_11_">
			<use xlink:href="#SVGID_10_"  overflow="visible"/>
		</clipPath>
		
			<linearGradient id="SVGID_12_" gradientUnits="userSpaceOnUse" x1="-181.3013" y1="673.6494" x2="-180.5679" y2="673.6494" gradientTransform="matrix(0 6.0633 -6.0633 0 4216.8384 1224.4348)">
			<stop  offset="0" style="stop-color:#838485"/>
			<stop  offset="1" style="stop-color:#B0B0B0"/>
		</linearGradient>
		<rect x="130.082" y="125.204" clip-path="url(#SVGID_11_)" fill="url(#SVGID_12_)" width="4.402" height="4.403"/>
	</g>
	<g>
		<defs>
			<path id="SVGID_13_" d="M138.957,127.405c0,1.358,1.102,2.462,2.461,2.462c1.36,0,2.462-1.104,2.462-2.462
				c0-1.36-1.102-2.462-2.462-2.462C140.059,124.943,138.957,126.045,138.957,127.405"/>
		</defs>
		<clipPath id="SVGID_14_">
			<use xlink:href="#SVGID_13_"  overflow="visible"/>
		</clipPath>
		
			<linearGradient id="SVGID_15_" gradientUnits="userSpaceOnUse" x1="-157.7339" y1="692.7725" x2="-157.0009" y2="692.7725" gradientTransform="matrix(0 -6.7749 6.7749 0 -4552.0615 -938.7053)">
			<stop  offset="0" style="stop-color:#838485"/>
			<stop  offset="1" style="stop-color:#B0B0B0"/>
		</linearGradient>
		<rect x="138.957" y="124.943" clip-path="url(#SVGID_14_)" fill="url(#SVGID_15_)" width="4.923" height="4.924"/>
	</g>
	<g>
		<defs>
			<path id="SVGID_16_" d="M139.216,127.405c0,1.216,0.985,2.202,2.202,2.202c1.215,0,2.203-0.986,2.203-2.202
				c0-1.217-0.988-2.201-2.203-2.201C140.201,125.204,139.216,126.188,139.216,127.405"/>
		</defs>
		<clipPath id="SVGID_17_">
			<use xlink:href="#SVGID_16_"  overflow="visible"/>
		</clipPath>
		
			<linearGradient id="SVGID_18_" gradientUnits="userSpaceOnUse" x1="-181.3013" y1="674.1963" x2="-180.5679" y2="674.1963" gradientTransform="matrix(0 6.0633 -6.0633 0 4229.2954 1224.4348)">
			<stop  offset="0" style="stop-color:#838485"/>
			<stop  offset="1" style="stop-color:#B0B0B0"/>
		</linearGradient>
		<rect x="139.216" y="125.204" clip-path="url(#SVGID_17_)" fill="url(#SVGID_18_)" width="4.405" height="4.403"/>
	</g>
	<g>
		<defs>
			<path id="SVGID_19_" d="M148.09,127.405c0,1.358,1.102,2.462,2.463,2.462c1.357,0,2.459-1.104,2.459-2.462
				c0-1.36-1.102-2.462-2.459-2.462C149.191,124.943,148.09,126.045,148.09,127.405"/>
		</defs>
		<clipPath id="SVGID_20_">
			<use xlink:href="#SVGID_19_"  overflow="visible"/>
		</clipPath>
		<rect x="148.09" y="124.943" clip-path="url(#SVGID_20_)" fill="#E0E0E0" width="4.922" height="4.924"/>
	</g>
	<g>
		<defs>
			<path id="SVGID_21_" d="M148.35,127.405c0,1.216,0.986,2.202,2.203,2.202c1.215,0,2.201-0.986,2.201-2.202
				c0-1.217-0.986-2.201-2.201-2.201C149.336,125.204,148.35,126.188,148.35,127.405"/>
		</defs>
		<clipPath id="SVGID_22_">
			<use xlink:href="#SVGID_21_"  overflow="visible"/>
		</clipPath>
		
			<linearGradient id="SVGID_23_" gradientUnits="userSpaceOnUse" x1="-181.3013" y1="674.7461" x2="-180.5679" y2="674.7461" gradientTransform="matrix(0 6.0633 -6.0633 0 4241.7563 1224.4348)">
			<stop  offset="0" style="stop-color:#838485"/>
			<stop  offset="1" style="stop-color:#B0B0B0"/>
		</linearGradient>
		<rect x="148.35" y="125.204" clip-path="url(#SVGID_22_)" fill="url(#SVGID_23_)" width="4.404" height="4.403"/>
	</g>
	<g>
		<defs>
			<path id="SVGID_24_" d="M157.434,127.405c0,2.137,1.73,3.868,3.869,3.868c2.135,0,3.866-1.731,3.866-3.868
				c0-2.136-1.731-3.868-3.866-3.868C159.164,123.537,157.434,125.27,157.434,127.405"/>
		</defs>
		<clipPath id="SVGID_25_">
			<use xlink:href="#SVGID_24_"  overflow="visible"/>
		</clipPath>
		
			<linearGradient id="SVGID_26_" gradientUnits="userSpaceOnUse" x1="-161.7817" y1="688.9033" x2="-161.0487" y2="688.9033" gradientTransform="matrix(0 -10.646 10.646 0 -7172.79 -1590.9711)">
			<stop  offset="0" style="stop-color:#838485"/>
			<stop  offset="1" style="stop-color:#B0B0B0"/>
		</linearGradient>
		<rect x="157.434" y="123.537" clip-path="url(#SVGID_25_)" fill="url(#SVGID_26_)" width="7.735" height="7.736"/>
	</g>
	<g>
		<defs>
			<path id="SVGID_27_" d="M157.84,127.405c0,1.912,1.55,3.463,3.463,3.463c1.91,0,3.46-1.551,3.46-3.463
				c0-1.913-1.55-3.459-3.46-3.459C159.39,123.946,157.84,125.492,157.84,127.405"/>
		</defs>
		<clipPath id="SVGID_28_">
			<use xlink:href="#SVGID_27_"  overflow="visible"/>
		</clipPath>
		
			<linearGradient id="SVGID_29_" gradientUnits="userSpaceOnUse" x1="-176.7813" y1="678.5195" x2="-176.0482" y2="678.5195" gradientTransform="matrix(0 9.5247 -9.5247 0 6624.0093 1807.6521)">
			<stop  offset="0" style="stop-color:#838485"/>
			<stop  offset="1" style="stop-color:#B0B0B0"/>
		</linearGradient>
		<rect x="157.84" y="123.947" clip-path="url(#SVGID_28_)" fill="url(#SVGID_29_)" width="6.923" height="6.921"/>
	</g>
	<path fill="#B0B0B0" d="M162.355,125.601v0.362c0.481,0.336,0.797,0.891,0.797,1.521c0,1.02-0.83,1.851-1.85,1.851
		c-1.023,0-1.852-0.831-1.852-1.851c0-0.63,0.315-1.185,0.798-1.521v-0.362c-0.659,0.371-1.104,1.075-1.104,1.883
		c0,1.188,0.969,2.158,2.158,2.158s2.158-0.97,2.158-2.158C163.461,126.676,163.016,125.972,162.355,125.601"/>
	<rect x="161.137" y="125.168" fill="#B0B0B0" width="0.332" height="2.496"/>
	<g>
		<defs>
			<path id="SVGID_30_" d="M88.556,6.488c0,1.161,0.941,2.104,2.103,2.104s2.102-0.943,2.102-2.104s-0.94-2.103-2.102-2.103
				S88.556,5.328,88.556,6.488"/>
		</defs>
		<clipPath id="SVGID_31_">
			<use xlink:href="#SVGID_30_"  overflow="visible"/>
		</clipPath>
		
			<linearGradient id="SVGID_32_" gradientUnits="userSpaceOnUse" x1="-163.4424" y1="697.4551" x2="-162.7095" y2="697.4551" gradientTransform="matrix(0 -5.7904 5.7904 0 -3947.8557 -937.7494)">
			<stop  offset="0" style="stop-color:#838485"/>
			<stop  offset="1" style="stop-color:#B0B0B0"/>
		</linearGradient>
		<rect x="88.556" y="4.386" clip-path="url(#SVGID_31_)" fill="url(#SVGID_32_)" width="4.204" height="4.206"/>
	</g>
	<g>
		<defs>
			<path id="SVGID_33_" d="M90.608,4.607c-1.015,0.027-1.831,0.859-1.831,1.881c0,1.039,0.843,1.88,1.881,1.88
				c1.039,0,1.88-0.841,1.88-1.88c0-1.022-0.813-1.854-1.83-1.881H90.608z"/>
		</defs>
		<clipPath id="SVGID_34_">
			<use xlink:href="#SVGID_33_"  overflow="visible"/>
		</clipPath>
		
			<linearGradient id="SVGID_35_" gradientUnits="userSpaceOnUse" x1="-174.9292" y1="668.9512" x2="-174.1958" y2="668.9512" gradientTransform="matrix(0 5.1767 -5.1767 0 3553.6174 910.1221)">
			<stop  offset="0" style="stop-color:#838485"/>
			<stop  offset="1" style="stop-color:#B0B0B0"/>
		</linearGradient>
		<rect x="88.777" y="4.607" clip-path="url(#SVGID_34_)" fill="url(#SVGID_35_)" width="3.761" height="3.761"/>
	</g>
	<path fill="#FFFFFF" d="M61.765,108.049c0,0.739,1.077,1.387,2.699,1.758v-3.515C62.842,106.661,61.765,107.311,61.765,108.049"/>
	<path fill="#FFFFFF" d="M73.419,108.049c0-0.738-1.078-1.388-2.697-1.757v3.515C72.341,109.436,73.419,108.788,73.419,108.049"/>
	<path fill="#FFFCFA" d="M64.464,90.812v15.48v3.515c0.903,0.206,1.975,0.328,3.13,0.328c1.151,0,2.223-0.122,3.127-0.328v-3.515
		v-15.48H64.464z"/>
	<path fill="#FFFFFF" d="M84.83,108.049c0,0.739,1.079,1.387,2.7,1.758v-3.515C85.908,106.661,84.83,107.311,84.83,108.049"/>
	<path fill="#FFFFFF" d="M96.486,108.049c0-0.738-1.08-1.388-2.699-1.757v3.515C95.406,109.436,96.486,108.788,96.486,108.049"/>
	<path fill="#FFFCFA" d="M87.529,90.812v15.48v3.515c0.905,0.206,1.977,0.328,3.128,0.328c1.154,0,2.223-0.122,3.129-0.328v-3.515
		v-15.48H87.529z"/>
	<path fill="#FFFFFF" d="M107.896,108.049c0,0.739,1.078,1.387,2.698,1.758v-3.515C108.975,106.661,107.896,107.311,107.896,108.049
		"/>
	<path fill="#FFFFFF" d="M119.553,108.049c0-0.738-1.079-1.388-2.7-1.757v3.515C118.474,109.436,119.553,108.788,119.553,108.049"/>
	<path fill="#FFFCFA" d="M110.596,90.812v15.48v3.515c0.902,0.206,1.975,0.328,3.128,0.328s2.226-0.122,3.13-0.328v-3.515v-15.48
		H110.596z"/>
	<polygon fill="#838485" points="31.393,97.707 31.396,98.436 152.523,98.436 152.516,97.707 	"/>
	<polygon fill="#FFFFFF" points="49.699,80.924 31.395,97.7 152.525,97.7 134.221,80.938 	"/>
	<path fill="#FFFFF8" d="M136.229,17.863h-1.831c-0.335,11.559-1.21,23.211-0.585,34.784c0.244,4.527,1.531,9.878-0.832,13.806
		c-0.779,1.295-2.904,3.708-4.176,2.111c-1.043-1.313-1.4-3.702-1.772-5.459c-0.493-2.328-0.906-4.688-1.556-6.952
		c-1.183-4.131-3.459-7.063-6.938-5.504c-1.118,0.501-0.638,2.87,0.49,2.362c7.44-3.336,4.102,17.83,10.422,18.533
		c2.007,0.223,3.992-1.966,5.149-3.893c2.091-3.471,1.657-8.18,1.276-12.279c-0.562-6.072-0.251-12.135-0.204-18.234
		c0.025-3.395-0.09-6.752,0.074-10.145C135.895,23.946,136.12,20.91,136.229,17.863"/>
	<g>
		<defs>
			<path id="SVGID_36_" d="M6.656,141.317c0,3.149,2.557,5.705,5.708,5.705h20.242c3.151,0,5.706-2.556,5.706-5.705
				c0-0.792-7.85-1.183-15.73-1.183C14.634,140.135,6.656,140.533,6.656,141.317"/>
		</defs>
		<clipPath id="SVGID_37_">
			<use xlink:href="#SVGID_36_"  overflow="visible"/>
		</clipPath>
		
			<rect x="6.656" y="135.611" clip-path="url(#SVGID_37_)" fill="none" stroke="#FFFFFF" stroke-miterlimit="10" width="31.655" height="11.411"/>
	</g>
	<path fill="none" stroke="#FFFFFF" stroke-miterlimit="10" d="M6.656,141.316c0,3.15,2.556,5.705,5.707,5.705h20.243
		c3.151,0,5.706-2.555,5.706-5.705C38.312,139.729,6.656,139.754,6.656,141.316z"/>
	<g>
		<defs>
			<path id="SVGID_38_" d="M142.106,141.317c0,3.149,2.556,5.705,5.706,5.705h20.244c3.15,0,5.705-2.556,5.705-5.705
				c0-0.784-8-1.183-15.957-1.183C149.934,140.135,142.106,140.524,142.106,141.317"/>
		</defs>
		<clipPath id="SVGID_39_">
			<use xlink:href="#SVGID_38_"  overflow="visible"/>
		</clipPath>
		
			<rect x="142.106" y="135.611" clip-path="url(#SVGID_39_)" fill="none" stroke="#FFFFFF" stroke-miterlimit="10" width="31.654" height="11.411"/>
	</g>
	<path fill="none" stroke="#FFFFFF" stroke-miterlimit="10" d="M142.107,141.316c0,3.15,2.555,5.705,5.706,5.705h20.243
		c3.15,0,5.705-2.555,5.705-5.705C173.762,139.758,142.107,139.724,142.107,141.316z"/>
	<defs>
		<filter id="Adobe_OpacityMaskFilter" filterUnits="userSpaceOnUse" x="-0.267" y="-0.267" width="180.952" height="141.563">
			<feFlood  style="flood-color:white;flood-opacity:1" result="back"/>
			<feBlend  in="SourceGraphic" in2="back" mode="normal"/>
		</filter>
	</defs>
	<mask maskUnits="userSpaceOnUse" x="-0.267" y="-0.267" width="180.952" height="141.563" id="SVGID_40_">
		<g filter="url(#Adobe_OpacityMaskFilter)">
			<g enable-background="new    ">
				<path fill="#1E120D" d="M136.629,106.99H42.63c-14.243,0-25.898-11.653-25.898-25.898V41.488
					c0-14.244,11.655-25.898,25.898-25.898h93.999c14.243,0,25.897,11.654,25.897,25.898v39.604
					C162.526,95.337,150.872,106.99,136.629,106.99"/>
				<g>
					<defs>
						<path id="SVGID_41_" d="M136.629,106.99H42.63c-14.243,0-25.898-11.652-25.898-25.897V41.488
							c0-14.244,11.655-25.898,25.898-25.898h93.999c14.244,0,25.897,11.654,25.897,25.898v39.604
							C162.526,95.338,150.873,106.99,136.629,106.99"/>
					</defs>
					<clipPath id="SVGID_42_">
						<use xlink:href="#SVGID_41_"  overflow="visible"/>
					</clipPath>
					<rect x="1.111" y="1.872" clip-path="url(#SVGID_42_)" fill="#1E120D" width="177.036" height="137.284"/>
				</g>
			</g>
		</g>
	</mask>
	<g mask="url(#SVGID_40_)">
		<g>
			<defs>
				<rect id="SVGID_43_" width="180.418" height="141.029"/>
			</defs>
			<clipPath id="SVGID_44_">
				<use xlink:href="#SVGID_43_"  overflow="visible"/>
			</clipPath>
			<g clip-path="url(#SVGID_44_)">
				<defs>
					<rect id="SVGID_45_" x="0.733" y="0.733" width="178.952" height="139.563"/>
				</defs>
				<clipPath id="SVGID_46_">
					<use xlink:href="#SVGID_45_"  overflow="visible"/>
				</clipPath>
				
					<rect x="0.733" y="0.733" clip-path="url(#SVGID_46_)" fill="none" stroke="#FFFFFF" stroke-width="2" stroke-miterlimit="10" width="178.952" height="139.562"/>
			</g>
			<g clip-path="url(#SVGID_44_)">
				<defs>
					<rect id="SVGID_47_" x="0.733" y="0.734" width="178.952" height="139.562"/>
				</defs>
				<clipPath id="SVGID_48_">
					<use xlink:href="#SVGID_47_"  overflow="visible"/>
				</clipPath>
				
					<rect x="0.733" y="0.734" clip-path="url(#SVGID_48_)" fill="none" stroke="#FFFFFF" stroke-width="2" stroke-miterlimit="10" width="178.952" height="139.562"/>
			</g>
			
				<rect x="0.733" y="0.734" clip-path="url(#SVGID_44_)" fill="none" stroke="#FFFFFF" stroke-width="2" stroke-miterlimit="10" width="178.952" height="139.562"/>
		</g>
	</g>
	<path fill="#E0E0E0" d="M120.273,127.188c0,1.358,1.102,2.462,2.463,2.462c1.359,0,2.463-1.104,2.463-2.462
		c0-1.359-1.104-2.46-2.463-2.46C121.375,124.729,120.273,125.829,120.273,127.188"/>
	<g>
		<defs>
			<path id="SVGID_49_" d="M120.273,127.188c0,1.358,1.102,2.462,2.463,2.462c1.359,0,2.463-1.104,2.463-2.462
				s-1.104-2.46-2.463-2.46C121.375,124.729,120.273,125.83,120.273,127.188"/>
		</defs>
		<clipPath id="SVGID_50_">
			<use xlink:href="#SVGID_49_"  overflow="visible"/>
		</clipPath>
		<rect x="120.273" y="124.729" clip-path="url(#SVGID_50_)" fill="#E0E0E0" width="4.926" height="4.922"/>
	</g>
	<g>
		<defs>
			<path id="SVGID_51_" d="M120.534,127.188c0,1.216,0.985,2.202,2.202,2.202s2.202-0.986,2.202-2.202
				c0-1.217-0.985-2.203-2.202-2.203S120.534,125.972,120.534,127.188"/>
		</defs>
		<clipPath id="SVGID_52_">
			<use xlink:href="#SVGID_51_"  overflow="visible"/>
		</clipPath>
		<rect x="120.534" y="124.986" clip-path="url(#SVGID_52_)" fill="#FFFFFF" width="4.404" height="4.405"/>
	</g>
	<g>
		<defs>
			<path id="SVGID_53_" d="M129.408,127.188c0,1.358,1.1,2.462,2.459,2.462c1.362,0,2.465-1.104,2.465-2.462s-1.103-2.46-2.465-2.46
				C130.508,124.729,129.408,125.83,129.408,127.188"/>
		</defs>
		<clipPath id="SVGID_54_">
			<use xlink:href="#SVGID_53_"  overflow="visible"/>
		</clipPath>
		
			<linearGradient id="SVGID_55_" gradientUnits="userSpaceOnUse" x1="-157.7427" y1="693.2871" x2="-157.0097" y2="693.2871" gradientTransform="matrix(0 -6.7729 6.7729 0 -4563.7031 -938.6666)">
			<stop  offset="0" style="stop-color:#838485"/>
			<stop  offset="1" style="stop-color:#B0B0B0"/>
		</linearGradient>
		<rect x="129.408" y="124.729" clip-path="url(#SVGID_54_)" fill="url(#SVGID_55_)" width="4.924" height="4.922"/>
	</g>
	<g>
		<defs>
			<path id="SVGID_56_" d="M129.668,127.188c0,1.216,0.984,2.202,2.199,2.202c1.219,0,2.203-0.986,2.203-2.202
				c0-1.217-0.984-2.203-2.203-2.203C130.652,124.985,129.668,125.972,129.668,127.188"/>
		</defs>
		<clipPath id="SVGID_57_">
			<use xlink:href="#SVGID_56_"  overflow="visible"/>
		</clipPath>
		<rect x="129.668" y="124.986" clip-path="url(#SVGID_57_)" fill="#FFFFFF" width="4.402" height="4.405"/>
	</g>
	<g>
		<defs>
			<path id="SVGID_58_" d="M138.542,127.188c0,1.358,1.101,2.462,2.46,2.462c1.36,0,2.463-1.104,2.463-2.462s-1.103-2.46-2.463-2.46
				C139.643,124.729,138.542,125.83,138.542,127.188"/>
		</defs>
		<clipPath id="SVGID_59_">
			<use xlink:href="#SVGID_58_"  overflow="visible"/>
		</clipPath>
		<rect x="138.542" y="124.729" clip-path="url(#SVGID_59_)" fill="#E0E0E0" width="4.923" height="4.922"/>
	</g>
	<g>
		<defs>
			<path id="SVGID_60_" d="M138.801,127.188c0,1.216,0.984,2.202,2.201,2.202s2.203-0.986,2.203-2.202
				c0-1.217-0.986-2.203-2.203-2.203S138.801,125.972,138.801,127.188"/>
		</defs>
		<clipPath id="SVGID_61_">
			<use xlink:href="#SVGID_60_"  overflow="visible"/>
		</clipPath>
		<rect x="138.801" y="124.986" clip-path="url(#SVGID_61_)" fill="#FFFFFF" width="4.404" height="4.405"/>
	</g>
	<g>
		<defs>
			<path id="SVGID_62_" d="M147.676,127.188c0,1.358,1.101,2.462,2.46,2.462c1.358,0,2.46-1.104,2.46-2.462s-1.102-2.46-2.46-2.46
				C148.776,124.729,147.676,125.83,147.676,127.188"/>
		</defs>
		<clipPath id="SVGID_63_">
			<use xlink:href="#SVGID_62_"  overflow="visible"/>
		</clipPath>
		<rect x="147.676" y="124.729" clip-path="url(#SVGID_63_)" fill="#FFFFFF" width="4.92" height="4.922"/>
	</g>
	<g>
		<defs>
			<path id="SVGID_64_" d="M147.934,127.188c0,1.216,0.986,2.202,2.202,2.202s2.202-0.986,2.202-2.202
				c0-1.217-0.986-2.203-2.202-2.203S147.934,125.972,147.934,127.188"/>
		</defs>
		<clipPath id="SVGID_65_">
			<use xlink:href="#SVGID_64_"  overflow="visible"/>
		</clipPath>
		<rect x="147.934" y="124.986" clip-path="url(#SVGID_65_)" fill="#FFFFFF" width="4.404" height="4.405"/>
	</g>
	<g>
		<defs>
			<path id="SVGID_66_" d="M157.019,127.188c0,2.137,1.731,3.868,3.868,3.868s3.869-1.731,3.869-3.868
				c0-2.136-1.732-3.867-3.869-3.867S157.019,125.053,157.019,127.188"/>
		</defs>
		<clipPath id="SVGID_67_">
			<use xlink:href="#SVGID_66_"  overflow="visible"/>
		</clipPath>
		<rect x="157.02" y="123.322" clip-path="url(#SVGID_67_)" fill="#E0E0E0" width="7.736" height="7.736"/>
	</g>
	<path fill="#FFFFFF" d="M157.424,127.188c0,1.911,1.551,3.462,3.463,3.462s3.46-1.551,3.46-3.462c0-1.912-1.548-3.461-3.46-3.461
		S157.424,125.276,157.424,127.188"/>
	<g>
		<defs>
			<path id="SVGID_68_" d="M157.424,127.188c0,1.911,1.551,3.462,3.463,3.462s3.46-1.551,3.46-3.462c0-1.912-1.548-3.46-3.46-3.46
				S157.424,125.276,157.424,127.188"/>
		</defs>
		<clipPath id="SVGID_69_">
			<use xlink:href="#SVGID_68_"  overflow="visible"/>
		</clipPath>
		<rect x="157.424" y="123.729" clip-path="url(#SVGID_69_)" fill="#FFFFFF" width="6.923" height="6.922"/>
	</g>
	<g>
		<defs>
			<path id="SVGID_70_" d="M88.107,6.255c0,1.162,0.94,2.103,2.102,2.103s2.103-0.941,2.103-2.103c0-1.16-0.941-2.102-2.103-2.102
				S88.107,5.095,88.107,6.255"/>
		</defs>
		<clipPath id="SVGID_71_">
			<use xlink:href="#SVGID_70_"  overflow="visible"/>
		</clipPath>
		
			<linearGradient id="SVGID_72_" gradientUnits="userSpaceOnUse" x1="-163.4517" y1="697.4961" x2="-162.7187" y2="697.4961" gradientTransform="matrix(0 -5.7847 5.7847 0 -3944.5684 -937.1058)">
			<stop  offset="0" style="stop-color:#838485"/>
			<stop  offset="1" style="stop-color:#B0B0B0"/>
		</linearGradient>
		<rect x="88.107" y="4.153" clip-path="url(#SVGID_71_)" fill="url(#SVGID_72_)" width="4.205" height="4.204"/>
	</g>
	<path fill="#FFFFFF" d="M88.33,6.255c0,1.04,0.841,1.881,1.88,1.881c1.04,0,1.88-0.841,1.88-1.881c0-1.038-0.84-1.88-1.88-1.88
		C89.171,4.375,88.33,5.217,88.33,6.255"/>
	<g>
		<defs>
			<path id="SVGID_73_" d="M88.33,6.255c0,1.04,0.841,1.881,1.879,1.881c1.041,0,1.881-0.841,1.881-1.881
				c0-1.039-0.841-1.881-1.881-1.881C89.171,4.374,88.33,5.216,88.33,6.255"/>
		</defs>
		<clipPath id="SVGID_74_">
			<use xlink:href="#SVGID_73_"  overflow="visible"/>
		</clipPath>
		<rect x="88.331" y="4.374" clip-path="url(#SVGID_74_)" fill="#FFFFFF" width="3.76" height="3.761"/>
	</g>
	<g>
		<defs>
			<rect id="SVGID_75_" x="70.415" y="123.281" width="36.341" height="11.398"/>
		</defs>
		<clipPath id="SVGID_76_">
			<use xlink:href="#SVGID_75_"  overflow="visible"/>
		</clipPath>
		
			<rect x="70.415" y="123.281" clip-path="url(#SVGID_76_)" fill="none" stroke="#FFFFFF" stroke-miterlimit="10" width="36.341" height="11.398"/>
	</g>
	<rect x="70.415" y="123.281" fill="none" stroke="#FFFFFF" stroke-miterlimit="10" width="36.341" height="11.398"/>
	<rect x="11.642" y="37.683" fill="#FFFFFF" width="156.978" height="6.134"/>
	<g>
		<defs>
			<rect id="SVGID_77_" x="11.642" y="37.683" width="156.978" height="6.134"/>
		</defs>
		<clipPath id="SVGID_78_">
			<use xlink:href="#SVGID_77_"  overflow="visible"/>
		</clipPath>
		<rect x="11.642" y="37.684" clip-path="url(#SVGID_78_)" fill="#FFFFFF" width="156.978" height="6.133"/>
	</g>
	<path fill="#FFFFFF" d="M107.801,65.181c0,0-0.076-0.149-0.168-0.373c-0.045-0.111-0.099-0.242-0.146-0.383
		c-0.054-0.14-0.092-0.288-0.135-0.437c-0.024-0.074-0.057-0.15-0.09-0.223c-0.035-0.074-0.066-0.146-0.067-0.217
		c-0.003-0.141,0.071-0.271,0.155-0.382c0.041-0.057,0.092-0.108,0.139-0.151c0.05-0.047,0.1-0.088,0.147-0.119
		c0.091-0.066,0.165-0.104,0.165-0.104h0.129c0,0,0.076,0.037,0.167,0.104c0.048,0.031,0.098,0.072,0.147,0.119
		c0.047,0.043,0.096,0.095,0.141,0.151c0.082,0.111,0.156,0.241,0.153,0.382c-0.002,0.07-0.032,0.143-0.067,0.217
		c-0.036,0.072-0.066,0.148-0.088,0.223c-0.044,0.148-0.082,0.297-0.138,0.437c-0.046,0.141-0.101,0.271-0.146,0.383
		c-0.093,0.224-0.17,0.373-0.17,0.373H107.801z"/>
	<path fill="#FFFFFF" d="M111.479,44.765v-5.942c0-1.426-1.154-2.581-2.58-2.581h-2.066c-1.424,0-2.58,1.155-2.58,2.581v5.942
		H111.479z"/>
	<path fill="none" stroke="#FFFFF8" stroke-miterlimit="10" d="M101.006,59.549c0.105,1.292,1.187,2.31,2.504,2.31h8.711
		c1.321,0,2.402-1.018,2.506-2.31H101.006z"/>
	<path fill="none" stroke="#FFFFF8" stroke-miterlimit="10" d="M104.789,61.857c-0.031,0.104-0.053,0.21-0.053,0.322
		c0,0.634,0.514,1.146,1.146,1.146h3.969c0.632,0,1.144-0.513,1.144-1.146c0-0.112-0.02-0.219-0.051-0.322H104.789z"/>
	<path fill="#FFFFF8" d="M117.285,47.598h-0.643v9.119h0.643c1.428,0,2.581-1.155,2.581-2.58v-3.959
		C119.866,48.753,118.713,47.598,117.285,47.598"/>
	<g>
		<defs>
			<path id="SVGID_79_" d="M100.23,44.981c-0.489,0-0.885,0.395-0.885,0.882v12.586c0,0.488,0.396,0.886,0.885,0.886h15.271
				c0.486,0,0.883-0.397,0.883-0.886V45.863c0-0.487-0.396-0.882-0.883-0.882H100.23z"/>
		</defs>
		<clipPath id="SVGID_80_">
			<use xlink:href="#SVGID_79_"  overflow="visible"/>
		</clipPath>
		
			<rect x="99.346" y="44.981" clip-path="url(#SVGID_80_)" fill="none" stroke="#FFFFFF" stroke-miterlimit="10" width="17.039" height="14.354"/>
	</g>
</g>
<g>
	<path fill-rule="evenodd" clip-rule="evenodd" fill="none" stroke="#FFFFFF" stroke-width="6" stroke-miterlimit="10" d="
		M-112.155,537.98c3.668-4.805,6.908-6.293,10.986-4.977c4.89,1.578,6.564,5.342,6.358,10.572c0.427-0.568,0.64-0.82,0.817-1.094
		c2.303-3.531,6.154-5.053,10.035-3.959c3.804,1.074,6.392,4.473,6.438,8.662c0.058,5.145,0.011,10.291,0.014,15.438
		c0.003,5.072,0.008,10.148,0.021,15.223c0.018,6.805-1.604,13.232-4.396,19.406c-2.023,4.469-3.986,8.967-4.029,14.1
		c-19.521,0-38.892,0-58.432,0c-0.09-1.918,0.138-3.881-0.334-5.658c-0.86-3.24-1.883-6.484-3.285-9.521
		c-4.06-8.795-8.403-17.459-12.514-26.232c-2.907-6.203-6.541-11.918-10.693-17.354c-1.466-1.92-2.727-4.121-3.54-6.387
		c-1.29-3.594,1.078-6.941,4.876-7.463c2.69-0.369,5.09,0.457,7.383,1.74c4.993,2.799,9.016,6.758,12.922,10.846
		c0.493,0.518,0.82,1.191,1.225,1.793c0.226-0.139,0.45-0.277,0.675-0.416c0-0.65,0-1.301,0-1.951
		c0.001-16.514,0.002-33.025,0.007-49.537c0-1.893,0-3.787,0.043-5.678c0.113-5.064,2.987-7.203,7.015-8.523
		c4.234-1.389,8.615,0.691,10.471,4.686c0.422,0.912,0.665,1.99,0.671,2.994c0.061,11.781,0.061,23.564,0.077,35.346
		c0,0.604,0,1.207,0,2.303c2.623-4.721,6.181-6.932,11.126-5.305C-113.228,528.676-111.837,532.727-112.155,537.98z"/>
	<path fill-rule="evenodd" clip-rule="evenodd" fill="#FFFFFF" stroke="#FFFFFF" stroke-miterlimit="10" d="M-120.231,513.809
		c0-5.768,0.048-11.535-0.01-17.301c-0.088-8.543-6.438-16.369-14.713-18.271c-7.227-1.66-14.341,2.66-17.553,6.754
		c-3.822,4.871-4.187,10.23-4.166,15.893c0.016,4.334,0.003,8.668,0.003,13.576c-0.924-0.988-1.527-1.547-2.032-2.184
		c-4.592-5.791-7.369-12.432-7.452-19.764c-0.127-11.156,7.047-23.805,21.282-26.299c7.202-1.262,14.217-0.686,20.727,2.939
		c10.099,5.623,15.362,18.566,12.281,29.998c-1.243,4.607-3.219,8.873-6.088,12.701c-0.57,0.762-1.241,1.447-1.866,2.168
		C-119.956,513.947-120.093,513.879-120.231,513.809z"/>
</g>
<g>
	<path fill-rule="evenodd" clip-rule="evenodd" fill="#FFFFFF" d="M-157.266,306.164c0.928-1.471,1.479-2.831,2.435-3.79
		c18.037-18.111,36.109-36.187,54.201-54.242c6.588-6.575,16.42-5.133,20.236,2.907c2.139,4.507,1.136,9.96-2.729,13.884
		c-6.163,6.258-12.406,12.437-18.609,18.654c-0.684,0.687-1.329,1.411-2.094,2.226c7.408,2.714,9.404,8.144,8.098,15.41
		c8.18,2.264,11.02,7.791,9.717,15.191c2.667,1.9,5.434,3.207,7.279,5.32c3.941,4.516,3.547,11.264-0.742,15.629
		c-9.54,9.713-19.223,19.285-28.847,28.916c-2.154,2.156-4.283,4.338-6.464,6.465c-10.159,9.91-26.081,10.252-36.344,0.461
		c-8.495-8.102-16.739-16.473-24.878-24.934c-1.529-1.59-2.236-4.096-2.981-6.295c-3.891-11.471-7.651-22.986-11.526-34.463
		c-0.359-1.064-1.059-2.109-1.851-2.918c-4.902-5.002-9.881-9.929-14.824-14.891c-2.903-2.915-2.798-4.017,0.083-7.114
		c3.702-3.98,7.409-7.736,13.56-6.967c6.566,0.821,12.638,2.933,18.216,6.504c4.521,2.894,7.784,6.934,10.538,11.434
		C-162.479,297.329-160.249,301.156-157.266,306.164z M-202.974,285.358c4.739,4.703,9.607,9.39,14.28,14.263
		c1.345,1.4,2.486,3.215,3.115,5.047c3.63,10.59,7.031,21.26,10.622,31.863c0.99,2.924,1.697,6.342,3.679,8.461
		c7.866,8.414,16.058,16.535,24.374,24.512c7.668,7.354,19.655,7.732,27.258,0.451c12.557-12.018,24.714-24.455,36.947-36.807
		c2.872-2.898,2.311-7.063-1.012-9.113c-2.51-1.551-5.004-1.244-7.279,0.66c-1.531,1.279-3.152,1.477-4.605,0.01
		c-1.584-1.602-1.207-3.289,0.22-4.82c1.103-1.18,2.346-2.238,3.36-3.486c1.629-2.004,1.822-4.287,0.545-6.514
		c-1.328-2.313-3.439-3.473-6.111-2.962c-1.129,0.214-2.222,0.909-3.193,1.583c-1.634,1.131-3.228,1.365-4.627-0.143
		c-1.523-1.645-1.082-3.328,0.379-4.831c0.845-0.87,1.734-1.698,2.559-2.588c2.461-2.655,2.688-5.713,0.639-8.193
		c-2.204-2.667-5.178-2.96-8.354-0.819c-0.083,0.057-0.161,0.122-0.24,0.184c-1.652,1.33-3.386,1.525-4.849-0.117
		c-1.502-1.688-0.898-3.331,0.577-4.805c6.583-6.566,13.155-13.146,19.727-19.728c3.071-3.074,6.209-6.088,9.171-9.264
		c2.021-2.169,2.169-4.724,0.568-7.248c-1.461-2.307-4.331-3.342-6.918-2.216c-1.418,0.617-2.664,1.782-3.787,2.902
		c-19.891,19.841-39.747,39.716-59.619,59.576c-3.053,3.049-4.905,2.756-7.035-0.93c-2.929-5.07-5.974-10.073-8.894-15.148
		c-3.966-6.894-10.159-10.892-17.52-13.089C-193.92,280.58-199.226,278.806-202.974,285.358z"/>
	<path fill-rule="evenodd" clip-rule="evenodd" fill="#FFFFFF" d="M-155.374,244.047c0-3.054,0.014-6.106-0.004-9.159
		c-0.012-2.069,0.869-3.546,2.999-3.648c2.162-0.104,3.269,1.399,3.297,3.39c0.089,6.202,0.089,12.409-0.009,18.611
		c-0.031,1.989-1.108,3.442-3.324,3.326c-2.218-0.116-2.961-1.632-2.959-3.656C-155.372,249.956-155.374,247.001-155.374,244.047z"
		/>
	<path fill-rule="evenodd" clip-rule="evenodd" fill="#FFFFFF" d="M-123.363,240.529c0.8,0.612,1.985,1.078,2.32,1.895
		c0.38,0.927,0.448,2.589-0.126,3.2c-4.305,4.58-8.706,9.083-13.334,13.328c-0.736,0.675-3.323,0.462-4.044-0.298
		c-0.714-0.755-0.765-3.275-0.05-4.061c4.096-4.497,8.487-8.728,12.835-12.989C-125.25,241.104-124.38,240.969-123.363,240.529z"/>
	<path fill-rule="evenodd" clip-rule="evenodd" fill="#FFFFFF" d="M-180.97,240.432c1.147,0.69,2.089,1.045,2.749,1.689
		c4.007,3.92,7.943,7.912,11.919,11.864c1.535,1.525,2.146,3.216,0.397,4.856c-1.666,1.563-3.404,1.096-4.936-0.44
		c-3.957-3.967-8.011-7.843-11.811-11.954c-0.809-0.876-1.088-2.664-0.878-3.908C-183.395,241.739-181.921,241.166-180.97,240.432z"
		/>
</g>
</svg>
