<?xml version="1.0" encoding="utf-8"?>
<!-- Generator: Adobe Illustrator 16.0.0, SVG Export Plug-In . SVG Version: 6.00 Build 0)  -->
<!DOCTYPE svg PUBLIC "-//W3C//DTD SVG 1.1//EN" "http://www.w3.org/Graphics/SVG/1.1/DTD/svg11.dtd">
<svg version="1.1" id="Capa_1" xmlns="http://www.w3.org/2000/svg" xmlns:xlink="http://www.w3.org/1999/xlink" x="0px" y="0px"
	 width="41.502px" height="35.67px" viewBox="0 0 41.502 35.67" enable-background="new 0 0 41.502 35.67" xml:space="preserve">
<g opacity="0.65">
	<g>
		<defs>
			<rect id="SVGID_1_" width="41.501" height="35.67"/>
		</defs>
		<clipPath id="SVGID_2_">
			<use xlink:href="#SVGID_1_"  overflow="visible"/>
		</clipPath>
		<path clip-path="url(#SVGID_2_)" fill="#FAFAFA" d="M22.134,10.895c-0.337-0.337-0.869-0.527-1.4-0.527
			c-0.478,0-1.063,0.19-1.406,0.527L8.81,21.489c-0.518,0.522-0.671,1.303-0.387,1.979c0.283,0.671,0.947,1.113,1.676,1.113
			l3.434-0.032l-0.049,8.428c0.004,1.49,1.213,2.693,2.703,2.693h9.094c1.49,0,2.697-1.203,2.703-2.693l-0.051-8.424l3.436,0.028
			c0.729,0,1.396-0.437,1.676-1.113c0.283-0.676,0.131-1.456-0.387-1.974L22.134,10.895z"/>
		<path clip-path="url(#SVGID_2_)" fill="#FAFAFA" d="M2.723,24.4c1.496,0,2.721-1.217,2.721-2.713V6.561
			c0-0.626,0.482-1.122,1.109-1.122h28.442c0.631,0,1.145,0.496,1.145,1.122v15.126c0,1.496,1.186,2.713,2.682,2.713
			s2.68-1.211,2.68-2.713V6.561C41.501,2.947,38.614,0,34.995,0H6.553C2.934,0,0.001,2.947,0.001,6.561v15.126
			C0.005,23.184,1.227,24.4,2.723,24.4"/>
	</g>
</g>
</svg>
