<?xml version="1.0" encoding="utf-8"?>
<!-- Generator: Adobe Illustrator 16.0.0, SVG Export Plug-In . SVG Version: 6.00 Build 0)  -->
<!DOCTYPE svg PUBLIC "-//W3C//DTD SVG 1.1//EN" "http://www.w3.org/Graphics/SVG/1.1/DTD/svg11.dtd">
<svg version="1.1" id="Capa_1" xmlns="http://www.w3.org/2000/svg" xmlns:xlink="http://www.w3.org/1999/xlink" x="0px" y="0px"
	 width="181.641px" height="31.266px" viewBox="0 0 181.641 31.266" enable-background="new 0 0 181.641 31.266"
	 xml:space="preserve">
<defs>
	<filter id="Adobe_OpacityMaskFilter" filterUnits="userSpaceOnUse" x="0" y="0" width="181.641" height="31.266">
		<feFlood  style="flood-color:white;flood-opacity:1" result="back"/>
		<feBlend  in="SourceGraphic" in2="back" mode="normal"/>
	</filter>
</defs>
<mask maskUnits="userSpaceOnUse" x="0" y="0" width="181.641" height="31.266" id="SVGID_1_">
	<g filter="url(#Adobe_OpacityMaskFilter)">
		<g>
			<rect y="26.936" width="181.641" height="1.146"/>
			<rect y="21.865" width="181.641" height="1.146"/>
			<rect y="16.794" width="181.641" height="1.146"/>
			<rect y="11.724" width="181.641" height="1.146"/>
			<rect y="6.653" width="181.641" height="1.146"/>
			<rect y="1.582" width="181.641" height="1.146"/>
		</g>
	</g>
</mask>
<g mask="url(#SVGID_1_)">
	<path fill="#63ADE0" d="M13.723,30.826H0V24.66h3.431V6.166H0V0h13.723v6.166h-3.431V24.66h3.431V30.826z"/>
	<path fill="#63ADE0" d="M32.021,0c2.872,0,5.051,0.859,6.538,2.576c1.486,1.718,2.229,4.235,2.229,7.552v10.569
		c0,3.318-0.742,5.836-2.229,7.553c-1.487,1.717-3.666,2.576-6.538,2.576H17.153V0H32.021z M33.926,10.128
		c0-2.642-1.143-3.963-3.431-3.963h-6.48V24.66h6.48c2.288,0,3.431-1.32,3.431-3.963V10.128z"/>
	<path fill="#63ADE0" d="M64.756,30.826H43.6V0h21.156v6.166H50.461v5.945h11.246v6.165H50.461v6.385h14.295V30.826z"/>
	<path fill="#63ADE0" d="M74.571,30.826h-7.435L77.239,0h7.624l10.102,30.826h-7.434l-1.715-5.506h-9.53L74.571,30.826z
		 M78.002,19.598h6.099l-3.05-10.35L78.002,19.598z"/>
	<path fill="#63ADE0" d="M96.871,0h16.01c2.669,0,4.606,0.698,5.814,2.092c1.205,1.395,1.81,3.633,1.81,6.715v3.963
		c0,2.438-0.35,4.331-1.049,5.682c-0.698,1.35-1.81,2.244-3.335,2.686l4.765,9.688h-7.433l-4.384-9.248h-5.337v9.248h-6.861V0z
		 M113.644,8.808c0-1.761-0.763-2.642-2.287-2.642h-7.624v9.248h7.624c1.524,0,2.287-0.88,2.287-2.642V8.808z"/>
	<path fill="#63ADE0" d="M147.332,31.266c-4.244,0-8.945-0.293-14.104-0.881v-5.943c5.616,0.439,9.81,0.66,12.579,0.66
		c0.586,0,1.049-0.199,1.393-0.596s0.514-0.932,0.514-1.607v-1.76c0-1.762-0.762-2.643-2.287-2.643h-8.005v-6.165h7.243
		c1.525,0,2.287-0.881,2.287-2.643V8.808c0-1.761-0.762-2.642-2.287-2.642h-11.055V0h12.961c2.49,0,4.318,0.654,5.488,1.96
		c1.17,1.307,1.754,3.296,1.754,5.967c0,1.762-0.35,3.193-1.049,4.293c-0.699,1.102-1.619,1.872-2.764,2.313
		c2.059,0.646,3.455,2.231,4.193,4.754c0.254,0.912,0.383,1.969,0.383,3.172v0.439c0,2.879-0.586,4.992-1.756,6.342
		C151.652,30.592,149.822,31.266,147.332,31.266z"/>
	<path fill="#63ADE0" d="M172.871,0c2.873,0,5.053,0.859,6.539,2.576c1.486,1.718,2.23,4.235,2.23,7.552v10.569
		c0,3.318-0.744,5.836-2.23,7.553s-3.666,2.576-6.539,2.576h-14.865V0H172.871z M174.779,10.128c0-2.642-1.145-3.963-3.432-3.963
		h-6.48V24.66h6.48c2.287,0,3.432-1.32,3.432-3.963V10.128z"/>
</g>
</svg>
