<?xml version="1.0" encoding="utf-8"?>
<!-- Generator: Adobe Illustrator 16.0.0, SVG Export Plug-In . SVG Version: 6.00 Build 0)  -->
<!DOCTYPE svg PUBLIC "-//W3C//DTD SVG 1.1//EN" "http://www.w3.org/Graphics/SVG/1.1/DTD/svg11.dtd">
<svg version="1.1" id="Capa_1" xmlns="http://www.w3.org/2000/svg" xmlns:xlink="http://www.w3.org/1999/xlink" x="0px" y="0px"
	 width="62.25px" height="62.25px" viewBox="-516 134.25 62.25 62.25" enable-background="new -516 134.25 62.25 62.25"
	 xml:space="preserve">
<g id="XMLID_27_">
	
		<circle id="XMLID_25_" fill="none" stroke="#FFFFFF" stroke-width="4" stroke-linecap="round" stroke-linejoin="round" stroke-miterlimit="10" cx="-484.875" cy="165.375" r="28.52"/>
</g>
<g id="XMLID_28_">
	
		<circle id="XMLID_18_" fill="none" stroke="#FFFFFF" stroke-width="1.4629" stroke-linecap="round" stroke-linejoin="round" stroke-miterlimit="10" cx="-4734.5" cy="755.833" r="283.333"/>
	<g id="XMLID_15_">
		<path id="XMLID_17_" fill="#FFFFFF" d="M-4728.833,778.5l76.5,45.333c2.833,2.834,8.5,0,11.333-2.833l5.667-11.333
			c2.833-2.834,0-8.5-2.833-11.334l-59.5-34c-2.833-2.833-2.833-2.833-2.833-5.666V685c0-5.667-2.833-8.5-8.5-8.5h-14.167
			c-5.667,0-8.5,2.833-8.5,8.5v85C-4734.5,772.833-4731.667,775.667-4728.833,778.5z"/>
		<path id="XMLID_16_" fill="#FFFFFF" d="M-4714.667,574.5c-96.333,0-172.833,73.667-181.333,170
			c0,5.667-5.667,11.333-11.333,11.333h-31.167c-5.667,0-8.5,8.5-5.667,11.334l62.333,65.166c2.834,2.834,8.5,2.834,11.333,0
			l65.167-65.166c5.667-5.667,0-11.334-5.667-11.334h-31.167c-8.5,0-14.167-5.666-11.333-14.166
			c5.667-70.834,68-127.5,141.667-127.5c76.5,0,138.833,65.166,138.833,138.833c0,79.333-62.333,141.667-141.667,141.667
			c-36.833,0-68-14.167-93.5-34c-2.833-2.834-8.5-2.834-11.333,0l-14.167,14.166c-2.833,2.834-2.833,8.5,0,14.167
			c31.167,28.333,73.667,45.333,121.833,45.333c99.167,0,181.333-82.166,181.333-181.333
			C-4533.333,653.833-4612.667,574.5-4714.667,574.5L-4714.667,574.5z"/>
	</g>
</g>
<g>
	<path fill="#FFFFFF" d="M-470.664,156.536l-9.162-8.51c-0.21-0.195-0.488-0.304-0.779-0.304h-16.791
		c-0.624,0-1.13,0.494-1.13,1.104v28.558l-0.01,3.864c-0.002,0.611,0.504,1.106,1.131,1.106h25.971c0.625,0,1.132-0.495,1.132-1.104
		l-0.01-23.915C-470.312,157.033-470.438,156.743-470.664,156.536z M-493.954,155.587h10.085c0.624,0,1.131,0.494,1.131,1.103v0.119
		c0,0.61-0.507,1.105-1.131,1.105h-10.085c-0.625,0-1.13-0.495-1.13-1.105v-0.119C-495.084,156.081-494.579,155.587-493.954,155.587
		z M-476.222,175.773h-17.732c-0.625,0-1.13-0.495-1.13-1.104v-0.119c0-0.61,0.506-1.104,1.13-1.104h17.732
		c0.625,0,1.131,0.495,1.131,1.104v0.119C-475.091,175.278-475.597,175.773-476.222,175.773z M-476.222,171.26h-17.732
		c-0.625,0-1.13-0.494-1.13-1.104v-0.119c0-0.611,0.506-1.104,1.13-1.104h17.732c0.625,0,1.131,0.493,1.131,1.104v0.119
		C-475.091,170.766-475.597,171.26-476.222,171.26z M-476.222,166.94h-17.732c-0.625,0-1.13-0.495-1.13-1.104v-0.119
		c0-0.609,0.506-1.105,1.13-1.105h17.732c0.625,0,1.131,0.496,1.131,1.105v0.119C-475.091,166.445-475.597,166.94-476.222,166.94z
		 M-476.222,162.426h-17.732c-0.625,0-1.13-0.494-1.13-1.104v-0.118c0-0.61,0.506-1.104,1.13-1.104h17.732
		c0.625,0,1.131,0.494,1.131,1.104v0.118C-475.091,161.933-475.597,162.426-476.222,162.426z M-480.705,156.325v-5.014
		c0-0.975,1.2-1.472,1.917-0.794l5.308,5.014c0.731,0.69,0.231,1.898-0.785,1.898h-5.309
		C-480.198,157.429-480.705,156.935-480.705,156.325z"/>
</g>
</svg>
