<?xml version="1.0" encoding="utf-8"?>
<!-- Generator: Adobe Illustrator 16.0.0, SVG Export Plug-In . SVG Version: 6.00 Build 0)  -->
<!DOCTYPE svg PUBLIC "-//W3C//DTD SVG 1.1//EN" "http://www.w3.org/Graphics/SVG/1.1/DTD/svg11.dtd">
<svg version="1.1" id="Capa_1" xmlns="http://www.w3.org/2000/svg" xmlns:xlink="http://www.w3.org/1999/xlink" x="0px" y="0px"
	 width="180.418px" height="147.022px" viewBox="0 0 180.418 147.022" enable-background="new 0 0 180.418 147.022"
	 xml:space="preserve">
<g>
	<path fill-rule="evenodd" clip-rule="evenodd" fill="none" stroke="#FFFFFF" stroke-width="6" stroke-miterlimit="10" d="
		M97.244,71.532c3.558-4.66,6.7-6.104,10.656-4.826c4.742,1.531,6.366,5.18,6.167,10.254c0.414-0.551,0.621-0.796,0.793-1.061
		c2.234-3.425,5.969-4.901,9.733-3.84c3.689,1.042,6.2,4.338,6.245,8.402c0.056,4.989,0.01,9.981,0.013,14.973
		c0.003,4.919,0.008,9.843,0.02,14.765c0.017,6.6-1.555,12.834-4.265,18.823c-1.962,4.334-3.866,8.697-3.908,13.676
		c-18.935,0-37.722,0-56.675,0c-0.086-1.86,0.134-3.764-0.324-5.489c-0.834-3.143-1.827-6.289-3.186-9.235
		c-3.938-8.53-8.151-16.934-12.138-25.444c-2.819-6.017-6.344-11.56-10.372-16.832c-1.422-1.861-2.645-3.997-3.434-6.194
		c-1.25-3.485,1.046-6.732,4.73-7.238c2.609-0.358,4.936,0.444,7.161,1.688c4.843,2.715,8.745,6.555,12.534,10.52
		c0.478,0.502,0.795,1.155,1.188,1.739c0.219-0.134,0.436-0.269,0.655-0.404c0-0.63,0-1.261,0-1.892
		c0.001-16.017,0.002-32.033,0.007-48.047c0-1.836,0-3.674,0.042-5.507c0.109-4.912,2.896-6.986,6.804-8.267
		c4.106-1.347,8.355,0.671,10.156,4.544c0.409,0.885,0.645,1.931,0.65,2.905c0.059,11.427,0.06,22.855,0.075,34.282
		c0,0.585,0,1.171,0,2.233c2.544-4.578,5.995-6.723,10.791-5.145C96.204,62.508,97.552,66.437,97.244,71.532z"/>
	<path fill-rule="evenodd" clip-rule="evenodd" fill="#FFFFFF" stroke="#FFFFFF" stroke-miterlimit="10" d="M89.41,48.087
		c0-5.594,0.046-11.188-0.01-16.781c-0.085-8.286-6.245-15.877-14.27-17.722c-7.01-1.61-13.91,2.581-17.025,6.551
		c-3.707,4.724-4.06,9.923-4.041,15.415c0.015,4.204,0.003,8.407,0.003,13.168c-0.897-0.959-1.481-1.5-1.971-2.118
		c-4.454-5.617-7.147-12.058-7.229-19.169C44.746,16.61,51.705,4.342,65.511,1.922c6.985-1.224,13.79-0.665,20.104,2.852
		c9.795,5.455,14.9,18.008,11.912,29.097c-1.206,4.468-3.122,8.606-5.905,12.318c-0.553,0.739-1.204,1.404-1.81,2.104
		C89.677,48.222,89.545,48.155,89.41,48.087z"/>
</g>
</svg>
